<?xml version="1.0" encoding="UTF-8" standalone="no"?>
<svg
   width="80"
   height="80"
   viewBox="0 0 80 80"
   version="1.1"
   xml:space="preserve"
   style="clip-rule:evenodd;fill-rule:evenodd;stroke-linejoin:round;stroke-miterlimit:1.41421"
   id="svg4"
   sodipodi:docname="skill-ff.svg"
   inkscape:version="1.4.2 (1:1.4.2+202505120737+ebf0e940d0)"
   xmlns:inkscape="http://www.inkscape.org/namespaces/inkscape"
   xmlns:sodipodi="http://sodipodi.sourceforge.net/DTD/sodipodi-0.dtd"
   xmlns="http://www.w3.org/2000/svg"
   xmlns:svg="http://www.w3.org/2000/svg"><defs
   id="defs4" /><sodipodi:namedview
   id="namedview4"
   pagecolor="#505050"
   bordercolor="#eeeeee"
   borderopacity="1"
   inkscape:showpageshadow="0"
   inkscape:pageopacity="0"
   inkscape:pagecheckerboard="0"
   inkscape:deskcolor="#505050"
   showguides="true"
   inkscape:zoom="18.605747"
   inkscape:cx="45.711682"
   inkscape:cy="31.038796"
   inkscape:window-width="2560"
   inkscape:window-height="1412"
   inkscape:window-x="0"
   inkscape:window-y="0"
   inkscape:window-maximized="1"
   inkscape:current-layer="g5" />
    
    
    
    <g
   id="g5"
   transform="matrix(1.3060788,0,0,1.3060788,8.6541347,8.6542705)"><g
     transform="matrix(0.153333,0,0,0.153333,-7.85311,1.12566)"
     id="g1">
        <circle
   cx="207.73801"
   cy="149.17999"
   r="142.98599"
   style="fill:#ffffff"
   id="circle1" />
    </g><g
     transform="matrix(0.153333,0,0,0.153333,-7.85311,1.12566)"
     id="g2"
     style="stroke-width:13.48213747;stroke-dasharray:none">
        <path
   d="m 207.738,292.659 -0.928,-0.003 -0.926,-0.009 -0.925,-0.014 -0.924,-0.021 -0.922,-0.026 -0.921,-0.032 -0.919,-0.038 -0.918,-0.044 -0.916,-0.049 -0.915,-0.055 -0.913,-0.061 -0.912,-0.066 -0.91,-0.072 -0.908,-0.078 -0.907,-0.084 -0.905,-0.089 -0.904,-0.094 -0.902,-0.101 -0.9,-0.105 -0.898,-0.112 -0.897,-0.117 -0.895,-0.122 -0.893,-0.128 -0.892,-0.133 -0.89,-0.139 -0.887,-0.144 -0.886,-0.15 -0.885,-0.155 -0.882,-0.16 -0.88,-0.166 -0.879,-0.171 -0.877,-0.177 -0.874,-0.182 -0.873,-0.187 -0.871,-0.192 -0.868,-0.198 -0.867,-0.203 -0.865,-0.208 -0.863,-0.214 -0.86,-0.218 -0.859,-0.224 -0.856,-0.229 -0.855,-0.234 -0.852,-0.239 -0.85,-0.244 -0.848,-0.25 -0.846,-0.254 -0.843,-0.26 -0.841,-0.264 -0.839,-0.27 -0.837,-0.274 -0.835,-0.28 -0.832,-0.284 -0.83,-0.29 -0.828,-0.294 -0.825,-0.299 -0.823,-0.305 -0.82,-0.309 -0.819,-0.314 -0.815,-0.318 -0.814,-0.324 -0.81,-0.328 -0.809,-0.333 -0.806,-0.338 -0.803,-0.343 -0.801,-0.348 -0.798,-0.352 -0.796,-0.357 -0.793,-0.361 -0.791,-0.366 -0.788,-0.371 -0.785,-0.376 -0.783,-0.38 -0.78,-0.385 -0.778,-0.389 -0.774,-0.394 -0.772,-0.398 -0.77,-0.403 -0.766,-0.407 -0.764,-0.412 -0.761,-0.417 -0.758,-0.421 -0.756,-0.425 -0.752,-0.43 -0.75,-0.434 -0.747,-0.438 -0.743,-0.443 -0.741,-0.447 -0.739,-0.452 -0.735,-0.456 -0.732,-0.46 -0.729,-0.464 -0.726,-0.469 -0.724,-0.473 -0.72,-0.477 -0.717,-0.481 -0.714,-0.486 -0.711,-0.489 -0.708,-0.494 -0.705,-0.498 -0.701,-0.502 -0.699,-0.507 -0.695,-0.51 -0.692,-0.514 -0.689,-0.519 -0.686,-0.522 -0.682,-0.527 -0.679,-0.53 -0.676,-0.535 -0.673,-0.538 -0.669,-0.542 -0.666,-0.547 -0.663,-0.55 -0.659,-0.554 -0.656,-0.558 -0.653,-0.562 -0.649,-0.565 -0.645,-0.57 -0.642,-0.573 -0.639,-0.577 -0.635,-0.581 -0.632,-0.585 -0.628,-0.588 -0.625,-0.592 -0.621,-0.596 -0.618,-0.599 -0.614,-0.603 -0.61,-0.607 -0.607,-0.61 -0.603,-0.614 -0.599,-0.618 -0.596,-0.621 -0.592,-0.625 -0.588,-0.628 -0.585,-0.632 -0.581,-0.635 -0.577,-0.639 -0.573,-0.642 -0.57,-0.645 -0.565,-0.649 -0.562,-0.653 -0.558,-0.656 -0.554,-0.659 -0.55,-0.663 -0.547,-0.666 -0.542,-0.669 -0.538,-0.673 -0.535,-0.676 -0.53,-0.679 -0.527,-0.682 -0.522,-0.686 -0.519,-0.689 -0.514,-0.692 -0.51,-0.695 -0.507,-0.699 -0.502,-0.701 -0.498,-0.705 -0.494,-0.708 -0.489,-0.711 -0.486,-0.714 -0.481,-0.717 -0.477,-0.72 -0.473,-0.724 -0.469,-0.726 -0.464,-0.729 -0.46,-0.732 -0.456,-0.735 -0.452,-0.739 -0.447,-0.741 -0.443,-0.743 -0.438,-0.747 -0.434,-0.75 -0.43,-0.752 -0.425,-0.756 -0.421,-0.758 -0.417,-0.761 -0.412,-0.764 -0.407,-0.766 -0.403,-0.77 -0.398,-0.772 -0.394,-0.774 -0.389,-0.778 -0.385,-0.78 -0.38,-0.783 -0.376,-0.785 -0.371,-0.788 -0.366,-0.791 -0.361,-0.793 -0.357,-0.796 -0.352,-0.798 -0.348,-0.801 -0.343,-0.803 -0.338,-0.806 -0.333,-0.809 -0.328,-0.81 -0.324,-0.814 -0.318,-0.815 -0.314,-0.819 -0.309,-0.82 -0.305,-0.823 -0.299,-0.825 -0.294,-0.828 -0.29,-0.83 -0.284,-0.832 -0.28,-0.835 -0.274,-0.837 -0.27,-0.839 -0.264,-0.841 -0.26,-0.843 -0.254,-0.846 -0.25,-0.848 -0.244,-0.85 -0.239,-0.852 -0.234,-0.855 -0.229,-0.856 -0.224,-0.859 -0.219,-0.86 -0.213,-0.863 -0.208,-0.865 -0.203,-0.867 -0.198,-0.868 -0.192,-0.871 -0.187,-0.873 -0.182,-0.874 -0.177,-0.877 -0.171,-0.879 -0.166,-0.88 -0.16,-0.882 -0.155,-0.885 -0.15,-0.886 -0.144,-0.887 -0.139,-0.89 -0.133,-0.892 -0.128,-0.893 -0.122,-0.895 -0.117,-0.897 -0.112,-0.898 -0.105,-0.9 -0.101,-0.902 -0.094,-0.904 -0.089,-0.905 -0.084,-0.907 -0.078,-0.908 -0.072,-0.91 -0.066,-0.912 -0.061,-0.913 -0.055,-0.915 -0.049,-0.916 -0.044,-0.918 -0.038,-0.919 -0.032,-0.921 -0.026,-0.922 -0.021,-0.924 -0.014,-0.925 -0.009,-0.926 -0.003,-0.928 0.003,-0.928 0.009,-0.926 0.014,-0.925 0.021,-0.924 0.026,-0.922 0.032,-0.921 0.038,-0.919 0.044,-0.918 0.049,-0.916 0.055,-0.915 0.061,-0.913 0.066,-0.912 0.072,-0.91 0.078,-0.908 0.084,-0.907 0.089,-0.905 0.094,-0.904 0.101,-0.902 0.105,-0.9 0.112,-0.898 0.117,-0.897 0.122,-0.895 0.128,-0.893 0.133,-0.892 0.139,-0.89 0.144,-0.887 0.15,-0.886 0.155,-0.885 0.16,-0.882 0.166,-0.88 0.171,-0.879 0.177,-0.877 0.182,-0.874 0.187,-0.873 0.192,-0.871 0.198,-0.868 0.203,-0.867 0.208,-0.865 0.213,-0.863 0.219,-0.86 0.224,-0.859 0.229,-0.856 0.234,-0.855 0.239,-0.852 0.244,-0.85 0.25,-0.848 0.254,-0.846 0.26,-0.843 0.264,-0.841 0.27,-0.839 0.274,-0.837 0.28,-0.835 0.284,-0.832 0.29,-0.83 0.294,-0.828 0.299,-0.825 0.305,-0.823 0.309,-0.82 0.314,-0.819 0.318,-0.815 0.324,-0.814 0.328,-0.81 0.333,-0.809 0.338,-0.806 0.343,-0.803 0.348,-0.801 0.352,-0.798 0.357,-0.796 0.361,-0.793 0.366,-0.791 0.371,-0.788 0.376,-0.785 0.38,-0.783 0.385,-0.78 0.389,-0.778 0.394,-0.774 0.398,-0.772 0.403,-0.77 0.407,-0.766 0.412,-0.764 0.417,-0.761 0.421,-0.758 0.425,-0.756 0.43,-0.752 0.434,-0.75 0.438,-0.747 0.443,-0.743 0.447,-0.741 0.452,-0.739 0.456,-0.735 0.46,-0.732 0.464,-0.729 0.469,-0.726 0.473,-0.724 0.477,-0.72 0.481,-0.717 0.486,-0.714 0.489,-0.711 0.494,-0.708 0.498,-0.705 0.502,-0.701 0.507,-0.699 0.51,-0.695 0.514,-0.692 0.519,-0.689 0.522,-0.686 0.527,-0.682 0.53,-0.679 0.535,-0.676 0.538,-0.673 0.542,-0.669 0.547,-0.666 0.55,-0.663 0.554,-0.659 0.558,-0.656 0.562,-0.653 0.565,-0.649 0.57,-0.645 0.573,-0.642 0.577,-0.639 0.581,-0.635 0.585,-0.632 0.588,-0.628 0.592,-0.625 0.596,-0.621 0.599,-0.618 0.603,-0.614 0.607,-0.61 0.61,-0.607 0.614,-0.603 0.618,-0.599 0.621,-0.596 0.625,-0.592 0.628,-0.588 0.632,-0.585 0.635,-0.581 0.639,-0.577 0.642,-0.573 0.645,-0.57 0.649,-0.565 0.653,-0.562 0.656,-0.558 0.659,-0.554 0.663,-0.55 0.666,-0.547 0.669,-0.542 0.673,-0.538 0.676,-0.535 0.679,-0.53 0.682,-0.527 0.686,-0.522 0.689,-0.519 0.692,-0.514 0.695,-0.51 0.699,-0.507 0.701,-0.502 0.705,-0.498 0.708,-0.494 0.711,-0.489 0.714,-0.486 0.717,-0.481 0.72,-0.477 0.724,-0.473 0.726,-0.469 0.729,-0.464 0.732,-0.46 0.735,-0.456 0.739,-0.452 0.741,-0.447 0.743,-0.443 0.747,-0.438 0.75,-0.434 0.752,-0.43 0.756,-0.425 0.758,-0.421 0.761,-0.417 0.764,-0.412 0.766,-0.407 0.77,-0.403 0.772,-0.398 0.774,-0.394 0.778,-0.389 0.78,-0.385 0.783,-0.38 0.785,-0.376 0.788,-0.371 0.791,-0.366 0.793,-0.361 0.796,-0.357 0.798,-0.352 0.801,-0.348 0.803,-0.343 0.806,-0.338 0.809,-0.333 0.81,-0.328 0.814,-0.324 0.815,-0.318 0.819,-0.314 0.82,-0.309 0.823,-0.305 0.825,-0.299 0.828,-0.294 0.83,-0.29 0.832,-0.284 0.835,-0.28 0.837,-0.274 0.839,-0.27 0.841,-0.264 0.843,-0.26 0.846,-0.254 0.848,-0.25 0.85,-0.244 0.852,-0.239 0.855,-0.234 0.856,-0.229 0.859,-0.224 0.86,-0.219 0.863,-0.213 0.865,-0.208 0.867,-0.203 0.868,-0.198 0.871,-0.192 0.873,-0.187 0.874,-0.182 0.877,-0.177 0.879,-0.171 0.88,-0.166 0.882,-0.16 0.885,-0.155 0.886,-0.15 0.887,-0.144 0.89,-0.139 0.892,-0.133 0.893,-0.128 0.895,-0.122 0.897,-0.117 0.898,-0.112 0.9,-0.105 0.902,-0.101 0.904,-0.094 0.905,-0.089 0.907,-0.084 0.908,-0.078 0.91,-0.072 0.912,-0.066 0.913,-0.061 0.915,-0.055 0.916,-0.049 0.918,-0.044 0.919,-0.038 0.921,-0.032 0.922,-0.026 0.924,-0.021 0.925,-0.014 0.926,-0.009 0.928,-0.003 0.928,0.003 0.926,0.009 0.925,0.014 0.924,0.021 0.922,0.026 0.921,0.032 0.919,0.038 0.918,0.044 0.916,0.049 0.915,0.055 0.913,0.061 0.912,0.066 0.91,0.072 0.908,0.078 0.907,0.084 0.905,0.089 0.904,0.094 0.902,0.101 0.9,0.105 0.898,0.112 0.897,0.117 0.895,0.122 0.893,0.128 0.892,0.133 0.89,0.139 0.887,0.144 0.886,0.15 0.885,0.155 0.882,0.16 0.88,0.166 0.879,0.171 0.877,0.177 0.874,0.182 0.873,0.187 0.871,0.192 0.868,0.198 0.867,0.203 0.865,0.208 0.863,0.213 0.86,0.219 0.859,0.224 0.856,0.229 0.855,0.234 0.852,0.239 0.85,0.244 0.848,0.25 0.846,0.254 0.843,0.26 0.841,0.264 0.839,0.27 0.837,0.274 0.835,0.28 0.832,0.284 0.83,0.29 0.828,0.294 0.825,0.299 0.823,0.305 0.82,0.309 0.819,0.314 0.815,0.318 0.814,0.324 0.81,0.328 0.809,0.333 0.806,0.338 0.803,0.343 0.801,0.348 0.798,0.352 0.796,0.357 0.793,0.361 0.791,0.366 0.788,0.371 0.785,0.376 0.783,0.38 0.78,0.385 0.778,0.389 0.774,0.394 0.772,0.398 0.77,0.403 0.766,0.407 0.764,0.412 0.761,0.417 0.758,0.421 0.756,0.425 0.752,0.43 0.75,0.434 0.747,0.438 0.743,0.443 0.741,0.447 0.739,0.452 0.735,0.456 0.732,0.46 0.729,0.464 0.726,0.469 0.724,0.473 0.72,0.477 0.717,0.481 0.714,0.486 0.711,0.489 0.708,0.494 0.705,0.498 0.701,0.502 0.699,0.507 0.695,0.51 0.692,0.514 0.689,0.519 0.686,0.522 0.682,0.527 0.679,0.53 0.676,0.535 0.673,0.538 0.669,0.542 0.666,0.547 0.663,0.55 0.659,0.554 0.656,0.558 0.653,0.562 0.649,0.565 0.645,0.57 0.642,0.573 0.639,0.577 0.635,0.581 0.632,0.585 0.628,0.588 0.625,0.592 0.621,0.596 0.618,0.599 0.614,0.603 0.61,0.607 0.607,0.61 0.603,0.614 0.599,0.618 0.596,0.621 0.592,0.625 0.588,0.628 0.585,0.632 0.581,0.635 0.577,0.639 0.573,0.642 0.57,0.645 0.565,0.649 0.562,0.653 0.558,0.656 0.554,0.659 0.55,0.663 0.547,0.666 0.542,0.669 0.538,0.673 0.535,0.676 0.53,0.679 0.527,0.682 0.522,0.686 0.519,0.689 0.514,0.692 0.51,0.695 0.507,0.699 0.502,0.701 0.498,0.705 0.494,0.708 0.489,0.711 0.486,0.714 0.481,0.717 0.477,0.72 0.473,0.724 0.469,0.726 0.464,0.729 0.46,0.732 0.456,0.735 0.452,0.739 0.447,0.741 0.443,0.743 0.438,0.747 0.434,0.75 0.43,0.752 0.425,0.756 0.421,0.758 0.417,0.761 0.412,0.764 0.407,0.766 0.403,0.77 0.398,0.772 0.394,0.774 0.389,0.778 0.385,0.78 0.38,0.783 0.376,0.785 0.371,0.788 0.366,0.791 0.361,0.793 0.357,0.796 0.352,0.798 0.348,0.801 0.343,0.803 0.338,0.806 0.333,0.809 0.328,0.81 0.324,0.814 0.318,0.815 0.314,0.819 0.309,0.82 0.305,0.823 0.299,0.825 0.294,0.828 0.29,0.83 0.284,0.832 0.28,0.835 0.274,0.837 0.27,0.839 0.264,0.841 0.26,0.843 0.254,0.846 0.25,0.848 0.244,0.85 0.239,0.852 0.234,0.855 0.229,0.856 0.224,0.859 0.219,0.86 0.213,0.863 0.208,0.865 0.203,0.867 0.198,0.868 0.192,0.871 0.187,0.873 0.182,0.874 0.177,0.877 0.171,0.879 0.166,0.88 0.16,0.882 0.155,0.885 0.15,0.886 0.144,0.888 0.139,0.889 0.133,0.892 0.128,0.893 0.122,0.895 0.117,0.897 0.112,0.898 0.105,0.9 0.101,0.902 0.094,0.904 0.089,0.905 0.084,0.907 0.078,0.908 0.072,0.91 0.066,0.912 0.061,0.913 0.055,0.915 0.049,0.916 0.044,0.918 0.038,0.919 0.032,0.921 0.026,0.922 0.021,0.924 0.014,0.925 0.009,0.926 0.003,0.928 -0.003,0.928 -0.009,0.926 -0.014,0.925 -0.021,0.924 -0.026,0.922 -0.032,0.921 -0.038,0.919 -0.044,0.918 -0.049,0.916 -0.055,0.915 -0.061,0.913 -0.066,0.912 -0.072,0.91 -0.078,0.908 -0.084,0.907 -0.089,0.905 -0.094,0.904 -0.101,0.902 -0.105,0.9 -0.112,0.898 -0.117,0.897 -0.122,0.895 -0.128,0.893 -0.133,0.892 -0.139,0.89 -0.144,0.887 -0.15,0.886 -0.155,0.885 -0.16,0.882 -0.166,0.88 -0.171,0.879 -0.177,0.877 -0.182,0.874 -0.187,0.873 -0.192,0.871 -0.198,0.868 -0.203,0.867 -0.208,0.865 -0.213,0.863 -0.219,0.86 -0.224,0.859 -0.229,0.856 -0.234,0.855 -0.239,0.852 -0.244,0.85 -0.25,0.848 -0.254,0.846 -0.26,0.843 -0.264,0.841 -0.27,0.839 -0.274,0.837 -0.28,0.835 -0.284,0.832 -0.29,0.83 -0.294,0.828 -0.299,0.825 -0.305,0.823 -0.309,0.82 -0.314,0.819 -0.318,0.815 -0.324,0.814 -0.328,0.81 -0.333,0.809 -0.338,0.806 -0.343,0.803 -0.348,0.801 -0.352,0.798 -0.357,0.796 -0.361,0.793 -0.366,0.791 -0.371,0.788 -0.376,0.785 -0.38,0.783 -0.385,0.78 -0.389,0.778 -0.394,0.774 -0.398,0.772 -0.403,0.77 -0.407,0.766 -0.412,0.764 -0.417,0.761 -0.421,0.758 -0.425,0.756 -0.43,0.752 -0.434,0.75 -0.438,0.747 -0.443,0.743 -0.447,0.741 -0.452,0.739 -0.456,0.735 -0.46,0.732 -0.464,0.729 -0.469,0.726 -0.473,0.724 -0.477,0.72 -0.481,0.717 -0.486,0.714 -0.489,0.711 -0.494,0.708 -0.498,0.705 -0.502,0.701 -0.507,0.699 -0.51,0.695 -0.514,0.692 -0.519,0.689 -0.522,0.686 -0.527,0.682 -0.53,0.679 -0.535,0.676 -0.538,0.673 -0.542,0.669 -0.547,0.666 -0.55,0.663 -0.554,0.659 -0.558,0.656 -0.562,0.653 -0.565,0.649 -0.57,0.645 -0.573,0.642 -0.577,0.639 -0.581,0.635 -0.585,0.632 -0.588,0.628 -0.592,0.625 -0.596,0.621 -0.599,0.618 -0.603,0.614 -0.607,0.61 -0.61,0.607 -0.614,0.603 -0.618,0.599 -0.621,0.596 -0.625,0.592 -0.628,0.588 -0.632,0.585 -0.635,0.581 -0.639,0.577 -0.642,0.573 -0.645,0.57 -0.649,0.565 -0.653,0.562 -0.656,0.558 -0.659,0.554 -0.663,0.55 -0.666,0.547 -0.669,0.542 -0.673,0.538 -0.676,0.535 -0.679,0.53 -0.682,0.527 -0.686,0.522 -0.689,0.519 -0.692,0.514 -0.695,0.51 -0.699,0.507 -0.701,0.502 -0.705,0.498 -0.708,0.494 -0.711,0.489 -0.714,0.486 -0.717,0.481 -0.72,0.477 -0.724,0.473 -0.726,0.469 -0.729,0.464 -0.732,0.46 -0.735,0.456 -0.739,0.452 -0.741,0.447 -0.743,0.443 -0.747,0.438 -0.75,0.434 -0.752,0.43 -0.756,0.425 -0.758,0.421 -0.761,0.417 -0.764,0.412 -0.766,0.407 -0.77,0.403 -0.772,0.398 -0.774,0.394 -0.778,0.389 -0.78,0.385 -0.783,0.38 -0.785,0.376 -0.788,0.371 -0.791,0.366 -0.793,0.361 -0.796,0.357 -0.798,0.352 -0.801,0.348 -0.803,0.343 -0.806,0.338 -0.809,0.333 -0.81,0.328 -0.814,0.324 -0.815,0.318 -0.819,0.314 -0.82,0.309 -0.823,0.305 -0.825,0.299 -0.828,0.294 -0.83,0.29 -0.832,0.284 -0.835,0.28 -0.837,0.274 -0.839,0.27 -0.841,0.264 -0.843,0.26 -0.846,0.254 -0.848,0.25 -0.85,0.244 -0.852,0.239 -0.855,0.234 -0.856,0.229 -0.859,0.224 -0.86,0.218 -0.863,0.214 -0.865,0.208 -0.867,0.203 -0.868,0.198 -0.871,0.192 -0.873,0.187 -0.874,0.182 -0.877,0.177 -0.879,0.171 -0.88,0.166 -0.882,0.16 -0.885,0.155 -0.886,0.15 -0.887,0.144 -0.89,0.139 -0.892,0.133 -0.893,0.128 -0.895,0.122 -0.897,0.117 -0.898,0.112 -0.9,0.105 -0.902,0.101 -0.904,0.094 -0.905,0.089 -0.907,0.084 -0.908,0.078 -0.91,0.072 -0.912,0.066 -0.913,0.061 -0.915,0.055 -0.916,0.049 -0.918,0.044 -0.919,0.038 -0.921,0.032 -0.922,0.026 -0.924,0.021 -0.925,0.014 -0.926,0.009 z m 0,-0.493 0.925,-0.003 0.923,-0.009 0.922,-0.014 0.921,-0.021 0.919,-0.026 0.917,-0.032 0.916,-0.038 0.915,-0.043 0.913,-0.049 0.912,-0.055 0.91,-0.061 0.908,-0.066 0.907,-0.072 0.906,-0.077 0.903,-0.083 0.902,-0.089 0.901,-0.095 0.899,-0.099 0.897,-0.106 0.895,-0.111 0.894,-0.116 0.892,-0.122 0.89,-0.128 0.888,-0.133 0.887,-0.138 0.885,-0.144 0.883,-0.149 0.881,-0.154 0.879,-0.16 0.878,-0.165 0.875,-0.171 0.874,-0.176 0.871,-0.181 0.87,-0.187 0.868,-0.191 0.866,-0.197 0.863,-0.203 0.862,-0.207 0.86,-0.213 0.857,-0.218 0.856,-0.223 0.854,-0.228 0.851,-0.233 0.849,-0.238 0.847,-0.244 0.845,-0.248 0.843,-0.254 0.841,-0.258 0.838,-0.264 0.836,-0.269 0.834,-0.273 0.832,-0.279 0.829,-0.283 0.827,-0.289 0.825,-0.293 0.822,-0.298 0.82,-0.303 0.818,-0.308 0.815,-0.313 0.813,-0.318 0.811,-0.322 0.808,-0.328 0.805,-0.332 0.804,-0.337 0.8,-0.341 0.798,-0.346 0.796,-0.351 0.793,-0.356 0.79,-0.36 0.788,-0.365 0.786,-0.37 0.782,-0.374 0.78,-0.379 0.778,-0.383 0.775,-0.388 0.772,-0.393 0.769,-0.397 0.767,-0.401 0.763,-0.406 0.762,-0.411 0.758,-0.415 0.756,-0.419 0.752,-0.424 0.75,-0.428 0.747,-0.433 0.745,-0.437 0.741,-0.441 0.738,-0.446 0.736,-0.45 0.733,-0.454 0.729,-0.458 0.727,-0.463 0.724,-0.467 0.72,-0.472 0.718,-0.475 0.715,-0.48 0.711,-0.484 0.709,-0.488 0.705,-0.492 0.703,-0.496 0.699,-0.501 0.696,-0.504 0.693,-0.509 0.69,-0.512 0.686,-0.517 0.684,-0.521 0.68,-0.524 0.677,-0.529 0.673,-0.533 0.671,-0.536 0.667,-0.541 0.663,-0.544 0.661,-0.548 0.657,-0.553 0.653,-0.556 0.651,-0.56 0.647,-0.563 0.643,-0.568 0.64,-0.571 0.637,-0.575 0.633,-0.579 0.629,-0.583 0.626,-0.586 0.623,-0.59 0.619,-0.594 0.615,-0.597 0.612,-0.601 0.608,-0.605 0.605,-0.608 0.601,-0.612 0.597,-0.615 0.594,-0.619 0.59,-0.623 0.586,-0.626 0.583,-0.629 0.579,-0.633 0.575,-0.637 0.571,-0.64 0.568,-0.643 0.563,-0.647 0.56,-0.651 0.556,-0.653 0.553,-0.657 0.548,-0.661 0.544,-0.663 0.541,-0.667 0.536,-0.671 0.533,-0.673 0.529,-0.677 0.524,-0.68 0.521,-0.684 0.517,-0.686 0.512,-0.69 0.509,-0.693 0.504,-0.696 0.501,-0.699 0.496,-0.703 0.492,-0.705 0.488,-0.709 0.484,-0.711 0.48,-0.715 0.475,-0.718 0.472,-0.72 0.467,-0.724 0.463,-0.727 0.458,-0.729 0.454,-0.733 0.45,-0.736 0.446,-0.738 0.441,-0.741 0.437,-0.745 0.433,-0.747 0.428,-0.75 0.424,-0.752 0.419,-0.756 0.415,-0.758 0.411,-0.762 0.406,-0.763 0.401,-0.767 0.397,-0.769 0.393,-0.772 0.388,-0.775 0.383,-0.778 0.379,-0.78 0.374,-0.782 0.37,-0.786 0.365,-0.788 0.36,-0.79 0.356,-0.793 0.351,-0.796 0.346,-0.798 0.341,-0.8 0.337,-0.804 0.332,-0.805 0.328,-0.808 0.322,-0.811 0.318,-0.813 0.313,-0.815 0.308,-0.818 0.303,-0.82 0.298,-0.822 0.293,-0.825 0.289,-0.827 0.283,-0.829 0.279,-0.832 0.273,-0.834 0.269,-0.836 0.264,-0.838 0.258,-0.841 0.254,-0.843 0.248,-0.845 0.244,-0.847 0.238,-0.849 0.233,-0.851 0.228,-0.854 0.223,-0.856 0.218,-0.857 0.213,-0.86 0.207,-0.862 0.203,-0.863 0.197,-0.866 0.191,-0.868 0.187,-0.87 0.181,-0.871 0.176,-0.874 0.171,-0.875 0.165,-0.878 0.16,-0.879 0.154,-0.881 0.149,-0.883 0.144,-0.885 0.138,-0.887 0.133,-0.888 0.128,-0.89 0.122,-0.892 0.116,-0.894 0.111,-0.895 0.106,-0.897 0.099,-0.899 0.095,-0.901 0.089,-0.902 0.083,-0.903 0.077,-0.906 0.072,-0.907 0.066,-0.908 0.061,-0.91 0.055,-0.912 0.049,-0.913 0.043,-0.915 0.038,-0.916 0.032,-0.917 0.026,-0.919 0.021,-0.921 0.014,-0.922 0.009,-0.923 0.003,-0.925 -0.003,-0.925 -0.009,-0.923 -0.014,-0.922 -0.021,-0.921 -0.026,-0.919 -0.032,-0.917 -0.038,-0.916 -0.043,-0.915 -0.049,-0.913 -0.055,-0.912 -0.061,-0.91 -0.066,-0.908 -0.072,-0.907 -0.077,-0.906 -0.083,-0.903 -0.089,-0.902 -0.095,-0.901 -0.099,-0.899 -0.106,-0.897 -0.111,-0.895 -0.116,-0.894 -0.122,-0.892 -0.128,-0.89 -0.133,-0.888 -0.138,-0.887 -0.144,-0.885 -0.149,-0.883 -0.154,-0.881 -0.16,-0.879 -0.165,-0.878 -0.171,-0.875 -0.176,-0.874 -0.181,-0.871 -0.187,-0.87 -0.191,-0.868 -0.197,-0.866 -0.203,-0.863 -0.207,-0.862 -0.213,-0.86 -0.218,-0.857 -0.223,-0.856 -0.228,-0.854 -0.233,-0.851 -0.238,-0.849 -0.244,-0.847 -0.248,-0.845 -0.254,-0.843 -0.258,-0.841 -0.264,-0.838 -0.269,-0.836 -0.273,-0.834 -0.279,-0.832 -0.283,-0.829 -0.289,-0.827 -0.293,-0.825 -0.298,-0.822 -0.303,-0.82 -0.308,-0.818 -0.313,-0.815 -0.318,-0.813 -0.322,-0.811 -0.328,-0.808 -0.332,-0.805 -0.337,-0.804 -0.341,-0.8 -0.346,-0.798 -0.351,-0.796 -0.356,-0.793 -0.36,-0.79 -0.365,-0.788 -0.37,-0.786 -0.374,-0.782 -0.379,-0.78 -0.383,-0.778 -0.388,-0.775 -0.393,-0.772 -0.397,-0.769 -0.401,-0.767 -0.406,-0.763 -0.411,-0.762 -0.415,-0.758 -0.419,-0.756 -0.424,-0.752 -0.428,-0.75 -0.433,-0.747 -0.437,-0.745 -0.441,-0.741 -0.446,-0.738 -0.45,-0.736 -0.454,-0.733 -0.458,-0.729 -0.463,-0.727 -0.467,-0.724 -0.472,-0.72 -0.475,-0.718 -0.48,-0.715 -0.484,-0.711 -0.488,-0.709 -0.492,-0.705 -0.496,-0.703 -0.501,-0.699 -0.504,-0.696 -0.509,-0.693 -0.512,-0.69 -0.517,-0.686 -0.521,-0.684 -0.524,-0.68 -0.529,-0.677 -0.533,-0.673 -0.536,-0.671 -0.541,-0.667 -0.544,-0.663 -0.548,-0.661 -0.553,-0.657 -0.556,-0.653 -0.56,-0.651 -0.563,-0.647 -0.568,-0.643 -0.571,-0.64 -0.575,-0.637 -0.579,-0.633 -0.583,-0.629 -0.586,-0.626 -0.59,-0.623 -0.594,-0.619 -0.597,-0.615 -0.601,-0.612 -0.605,-0.608 -0.608,-0.605 -0.612,-0.601 -0.615,-0.597 -0.619,-0.594 -0.623,-0.59 -0.626,-0.586 -0.629,-0.583 -0.633,-0.579 -0.637,-0.575 -0.64,-0.571 -0.643,-0.568 -0.647,-0.563 -0.651,-0.56 -0.653,-0.556 -0.657,-0.553 -0.661,-0.548 -0.663,-0.544 -0.667,-0.541 -0.671,-0.536 -0.673,-0.533 -0.677,-0.529 -0.68,-0.524 -0.684,-0.521 -0.686,-0.517 -0.69,-0.512 -0.693,-0.509 -0.696,-0.504 -0.699,-0.501 -0.703,-0.496 -0.705,-0.492 -0.709,-0.488 -0.711,-0.484 -0.715,-0.48 -0.718,-0.475 -0.72,-0.472 -0.724,-0.467 -0.727,-0.463 -0.729,-0.458 -0.733,-0.454 -0.736,-0.45 -0.738,-0.446 -0.741,-0.441 -0.745,-0.437 -0.747,-0.433 -0.75,-0.428 -0.752,-0.424 -0.756,-0.419 -0.758,-0.415 -0.762,-0.411 -0.763,-0.406 -0.767,-0.401 -0.769,-0.397 -0.772,-0.393 -0.775,-0.388 -0.778,-0.383 -0.78,-0.379 -0.782,-0.374 -0.786,-0.37 -0.788,-0.365 -0.79,-0.36 -0.793,-0.356 -0.796,-0.351 -0.798,-0.346 -0.8,-0.341 -0.804,-0.337 -0.805,-0.332 -0.808,-0.328 -0.811,-0.322 -0.813,-0.318 -0.815,-0.313 -0.818,-0.308 -0.82,-0.303 -0.822,-0.298 -0.825,-0.293 -0.827,-0.289 -0.829,-0.283 -0.832,-0.279 -0.834,-0.273 -0.836,-0.269 -0.838,-0.264 -0.841,-0.258 -0.843,-0.254 -0.845,-0.248 -0.847,-0.244 -0.849,-0.238 -0.851,-0.233 -0.854,-0.228 -0.856,-0.223 -0.857,-0.218 -0.86,-0.213 -0.862,-0.207 -0.863,-0.203 -0.866,-0.197 -0.868,-0.191 -0.87,-0.187 -0.871,-0.181 -0.874,-0.176 -0.875,-0.171 -0.878,-0.165 -0.879,-0.16 -0.881,-0.154 -0.883,-0.149 -0.885,-0.144 -0.887,-0.138 -0.888,-0.133 -0.89,-0.128 -0.892,-0.122 -0.894,-0.116 -0.895,-0.111 -0.897,-0.106 -0.899,-0.099 -0.901,-0.095 -0.902,-0.089 -0.903,-0.083 -0.906,-0.077 -0.907,-0.072 -0.908,-0.066 -0.91,-0.061 -0.912,-0.055 -0.913,-0.049 -0.915,-0.043 -0.916,-0.038 -0.917,-0.032 -0.919,-0.026 -0.921,-0.021 -0.922,-0.014 -0.923,-0.009 -0.925,-0.003 -0.925,0.003 -0.923,0.009 -0.922,0.014 -0.921,0.021 -0.919,0.026 -0.917,0.032 -0.916,0.038 -0.915,0.043 -0.913,0.049 -0.912,0.055 -0.91,0.061 -0.908,0.066 -0.907,0.072 -0.906,0.077 -0.903,0.083 -0.902,0.089 -0.901,0.095 -0.899,0.099 -0.897,0.106 -0.895,0.111 -0.894,0.116 -0.892,0.122 -0.89,0.128 -0.888,0.133 -0.887,0.138 -0.885,0.144 -0.883,0.149 -0.881,0.154 -0.879,0.16 -0.878,0.165 -0.875,0.171 -0.874,0.176 -0.871,0.181 -0.87,0.187 -0.868,0.191 -0.866,0.197 -0.863,0.203 -0.862,0.207 -0.86,0.213 -0.857,0.218 -0.856,0.223 -0.854,0.228 -0.851,0.233 -0.849,0.238 -0.847,0.244 -0.845,0.248 -0.843,0.254 -0.841,0.258 -0.838,0.264 -0.836,0.269 -0.834,0.273 -0.832,0.279 -0.829,0.283 -0.827,0.289 -0.825,0.293 -0.822,0.298 -0.82,0.303 -0.818,0.308 -0.815,0.313 -0.813,0.318 -0.811,0.322 -0.808,0.328 -0.805,0.332 -0.804,0.337 -0.8,0.341 -0.798,0.346 -0.796,0.351 -0.793,0.356 -0.79,0.36 -0.788,0.365 -0.786,0.37 -0.782,0.374 -0.78,0.379 -0.778,0.383 -0.775,0.388 -0.772,0.393 -0.769,0.397 -0.767,0.401 -0.763,0.406 -0.762,0.411 -0.758,0.415 -0.756,0.419 -0.752,0.424 -0.75,0.428 -0.747,0.433 -0.745,0.437 -0.741,0.441 -0.738,0.446 -0.736,0.45 -0.733,0.454 -0.729,0.458 -0.727,0.463 -0.724,0.467 -0.72,0.472 -0.718,0.475 -0.715,0.48 -0.711,0.484 -0.709,0.488 -0.705,0.492 -0.703,0.496 -0.699,0.501 -0.696,0.504 -0.693,0.509 -0.69,0.512 -0.686,0.517 -0.684,0.521 -0.68,0.524 -0.677,0.529 -0.673,0.533 -0.671,0.536 -0.667,0.541 -0.663,0.544 -0.661,0.548 -0.657,0.553 -0.653,0.556 -0.651,0.56 -0.647,0.563 -0.643,0.568 -0.64,0.571 -0.637,0.575 -0.633,0.579 -0.629,0.583 -0.626,0.586 -0.623,0.59 -0.619,0.594 -0.615,0.597 -0.612,0.601 -0.608,0.605 -0.605,0.608 -0.601,0.612 -0.597,0.615 -0.594,0.619 -0.59,0.623 -0.586,0.626 -0.583,0.629 -0.579,0.633 -0.575,0.637 -0.571,0.64 -0.568,0.643 -0.563,0.647 -0.56,0.651 -0.556,0.653 -0.553,0.657 -0.548,0.661 -0.544,0.663 -0.541,0.667 -0.536,0.671 -0.533,0.673 -0.529,0.677 -0.524,0.68 -0.521,0.684 -0.517,0.686 -0.512,0.69 -0.509,0.693 -0.504,0.696 -0.501,0.699 -0.496,0.703 -0.492,0.705 -0.488,0.709 -0.484,0.711 -0.48,0.715 -0.475,0.718 -0.472,0.72 -0.467,0.724 -0.463,0.727 -0.458,0.729 -0.454,0.733 -0.45,0.736 -0.446,0.738 -0.441,0.741 -0.437,0.745 -0.433,0.747 -0.428,0.75 -0.424,0.752 -0.419,0.756 -0.415,0.758 -0.411,0.762 -0.406,0.763 -0.401,0.767 -0.397,0.769 -0.393,0.772 -0.388,0.775 -0.383,0.778 -0.379,0.78 -0.374,0.782 -0.37,0.786 -0.365,0.788 -0.36,0.79 -0.356,0.793 -0.351,0.796 -0.346,0.798 -0.341,0.8 -0.337,0.804 -0.332,0.805 -0.328,0.808 -0.322,0.811 -0.318,0.813 -0.313,0.815 -0.308,0.818 -0.303,0.82 -0.298,0.822 -0.293,0.825 -0.289,0.827 -0.283,0.829 -0.279,0.832 -0.273,0.834 -0.269,0.836 -0.264,0.838 -0.258,0.841 -0.254,0.843 -0.248,0.845 -0.244,0.847 -0.238,0.849 -0.233,0.851 -0.228,0.854 -0.223,0.856 -0.218,0.857 -0.213,0.86 -0.207,0.862 -0.203,0.863 -0.197,0.866 -0.191,0.868 -0.187,0.87 -0.181,0.871 -0.176,0.874 -0.171,0.875 -0.165,0.878 -0.16,0.879 -0.154,0.881 -0.149,0.883 -0.144,0.885 -0.138,0.887 -0.133,0.888 -0.128,0.89 -0.122,0.892 -0.116,0.894 -0.111,0.895 -0.106,0.897 -0.099,0.899 -0.095,0.901 -0.089,0.902 -0.083,0.903 -0.077,0.906 -0.072,0.907 -0.066,0.908 -0.061,0.91 -0.055,0.912 -0.049,0.913 -0.043,0.915 -0.038,0.916 -0.032,0.917 -0.026,0.919 -0.021,0.921 -0.014,0.922 -0.009,0.923 -0.003,0.925 0.003,0.925 0.009,0.923 0.014,0.922 0.021,0.921 0.026,0.919 0.032,0.917 0.038,0.916 0.043,0.915 0.049,0.913 0.055,0.912 0.061,0.91 0.066,0.908 0.072,0.907 0.077,0.906 0.083,0.903 0.089,0.902 0.095,0.901 0.099,0.899 0.106,0.897 0.111,0.895 0.116,0.894 0.122,0.892 0.128,0.89 0.133,0.888 0.138,0.887 0.144,0.885 0.149,0.883 0.154,0.881 0.16,0.879 0.165,0.878 0.171,0.875 0.176,0.874 0.181,0.871 0.187,0.87 0.191,0.868 0.197,0.866 0.203,0.863 0.207,0.862 0.213,0.86 0.218,0.857 0.223,0.856 0.228,0.854 0.233,0.851 0.238,0.849 0.244,0.847 0.248,0.845 0.254,0.843 0.258,0.841 0.264,0.838 0.269,0.836 0.273,0.834 0.279,0.832 0.283,0.829 0.289,0.827 0.293,0.825 0.298,0.822 0.303,0.82 0.308,0.818 0.313,0.815 0.318,0.813 0.322,0.811 0.328,0.808 0.332,0.805 0.337,0.804 0.341,0.8 0.346,0.798 0.351,0.796 0.356,0.793 0.36,0.79 0.365,0.788 0.37,0.786 0.374,0.782 0.379,0.78 0.383,0.778 0.388,0.775 0.393,0.772 0.397,0.769 0.401,0.767 0.406,0.763 0.411,0.762 0.415,0.758 0.419,0.756 0.424,0.752 0.428,0.75 0.433,0.747 0.437,0.745 0.441,0.741 0.446,0.738 0.45,0.736 0.454,0.733 0.458,0.729 0.463,0.727 0.467,0.724 0.472,0.72 0.475,0.718 0.48,0.715 0.484,0.711 0.488,0.709 0.492,0.705 0.496,0.703 0.501,0.699 0.504,0.696 0.509,0.693 0.512,0.69 0.517,0.686 0.521,0.684 0.524,0.68 0.529,0.677 0.533,0.673 0.536,0.671 0.541,0.667 0.544,0.663 0.548,0.661 0.553,0.657 0.556,0.653 0.56,0.651 0.563,0.647 0.568,0.643 0.571,0.64 0.575,0.637 0.579,0.633 0.583,0.629 0.586,0.626 0.59,0.623 0.594,0.619 0.597,0.615 0.601,0.612 0.605,0.608 0.608,0.605 0.612,0.601 0.615,0.597 0.619,0.594 0.623,0.59 0.626,0.586 0.629,0.583 0.633,0.579 0.637,0.575 0.64,0.571 0.643,0.568 0.647,0.563 0.651,0.56 0.653,0.556 0.657,0.553 0.661,0.548 0.663,0.544 0.667,0.541 0.671,0.536 0.673,0.533 0.677,0.529 0.68,0.524 0.684,0.521 0.686,0.517 0.69,0.512 0.693,0.509 0.696,0.504 0.699,0.501 0.703,0.496 0.705,0.492 0.709,0.488 0.711,0.484 0.715,0.48 0.718,0.475 0.72,0.472 0.724,0.467 0.727,0.463 0.729,0.458 0.733,0.454 0.736,0.45 0.738,0.446 0.741,0.441 0.745,0.437 0.747,0.433 0.75,0.428 0.752,0.424 0.756,0.419 0.758,0.415 0.762,0.411 0.763,0.406 0.767,0.401 0.769,0.397 0.772,0.393 0.775,0.388 0.778,0.383 0.78,0.379 0.782,0.374 0.786,0.37 0.788,0.365 0.79,0.36 0.793,0.356 0.796,0.351 0.798,0.346 0.8,0.341 0.804,0.337 0.805,0.332 0.808,0.328 0.811,0.322 0.813,0.318 0.815,0.313 0.818,0.308 0.82,0.303 0.822,0.298 0.825,0.293 0.827,0.289 0.829,0.283 0.832,0.279 0.834,0.273 0.836,0.269 0.838,0.264 0.841,0.258 0.843,0.254 0.845,0.248 0.847,0.244 0.849,0.238 0.851,0.233 0.854,0.228 0.856,0.223 0.857,0.218 0.86,0.213 0.862,0.207 0.863,0.203 0.866,0.197 0.868,0.191 0.87,0.187 0.871,0.181 0.874,0.176 0.875,0.171 0.878,0.165 0.879,0.16 0.881,0.154 0.883,0.149 0.885,0.144 0.887,0.138 0.888,0.133 0.89,0.128 0.892,0.122 0.894,0.116 0.895,0.111 0.897,0.106 0.899,0.099 0.901,0.095 0.902,0.089 0.903,0.083 0.906,0.077 0.907,0.072 0.908,0.066 0.91,0.061 0.912,0.055 0.913,0.049 0.915,0.043 0.916,0.038 0.917,0.032 0.919,0.026 0.921,0.021 0.922,0.014 0.923,0.009 z"
   style="fill:#000000;stroke-width:0.99867685;stroke-dasharray:none"
   id="path1" />
    </g><g
     transform="matrix(0.0142722,0,0,-0.0142722,15.3938,30.1798)"
     id="g3">
        <path
   d="m 822,1290 c 96,0 184,-32 228,-87 108,109 209,139 296,139 140,0 184,-89 184,-148 0,-74 -47,-126 -118,-126 -77,0 -39,176 -148,176 -89,0 -163,-235 -200,-440 h 192 c 22,0 26,-16 26,-33 0,-46 -21,-85 -59,-85 h -189 c 0,0 -86.882,-411.191 -151,-668 -86.299,-345.65 -351,-442 -517,-442 -79,0 -163,28 -219,86 -75,-77 -189,-138 -311,-138 -60,0 -160,40 -160,116 0,43 43,108 89,108 81,0 91,-88 182,-88 44,0 74.498,12.138 111,144 80,289 201,882 201,882 H 116 c -23,0 -26,14 -26,29 0,40 15,89 66,89 h 133 c 73,251 235,486 533,486 z M 744,1190 C 603,1190 539,956 508,804 h 334 c 24,92 64,186 107,263 -48,76 -131,123 -205,123 z M 444,-302 c 78,0 140,26 178,162 90,324 190,826 190,826 H 482 C 434.075,464.729 381.246,226.205 334.818,47 303.225,-74.948 276.704,-143.428 249,-201 c 57,-67 131,-101 195,-101 z"
   style="fill:#232c31;fill-rule:nonzero"
   id="path2" />
    </g><g
     transform="matrix(0.730257,0.195672,-0.195672,0.730257,10.6234,-6.06039)"
     id="g4">
        <path
   d="m 28.079,55.651 0.328,1.455 c -0.265,0.06 -0.53,0.12 -0.795,0.179 l -0.328,-1.454 -1.455,0.328 -0.179,-0.795 1.455,-0.329 -0.329,-1.454 0.796,-0.18 0.218,0.968 4.269,-6.756 c -0.257,-0.286 -0.407,-0.668 -0.39,-1.082 0.034,-0.844 0.745,-1.5 1.588,-1.466 0.13,0.005 0.255,0.026 0.373,0.061 l 4.336,-6.862 -0.921,0.208 -0.179,-0.795 1.455,-0.328 -0.328,-1.455 0.795,-0.179 0.328,1.454 1.455,-0.328 0.179,0.795 -1.455,0.329 0.329,1.454 c -0.266,0.06 -0.531,0.12 -0.796,0.18 l -0.195,-0.865 -4.311,6.824 c 0.264,0.287 0.418,0.675 0.402,1.095 -0.034,0.844 -0.745,1.5 -1.589,1.466 C 33,48.114 32.869,48.091 32.745,48.053 l -4.208,6.659 0.818,-0.184 0.179,0.795 z"
   style="fill:#ff5900;stroke:#cc4700;stroke-width:0.13px"
   id="path3" />
    </g></g>
</svg>
