<?xml version="1.0" encoding="UTF-8" standalone="no"?>
<!-- Created with Inkscape (http://www.inkscape.org/) -->

<svg
   width="80mm"
   height="80mm"
   viewBox="0 0 80 80"
   version="1.1"
   id="svg1"
   inkscape:version="1.4.2 (1:1.4.2+202505120737+ebf0e940d0)"
   sodipodi:docname="skill-id.svg"
   xmlns:inkscape="http://www.inkscape.org/namespaces/inkscape"
   xmlns:sodipodi="http://sodipodi.sourceforge.net/DTD/sodipodi-0.dtd"
   xmlns="http://www.w3.org/2000/svg"
   xmlns:svg="http://www.w3.org/2000/svg">
  <sodipodi:namedview
     id="namedview1"
     pagecolor="#acacac"
     bordercolor="#eeeeee"
     borderopacity="1"
     inkscape:showpageshadow="0"
     inkscape:pageopacity="0"
     inkscape:pagecheckerboard="0"
     inkscape:deskcolor="#505050"
     inkscape:document-units="mm"
     inkscape:zoom="1.6088805"
     inkscape:cx="69.924398"
     inkscape:cy="140.15957"
     inkscape:window-width="1920"
     inkscape:window-height="1052"
     inkscape:window-x="0"
     inkscape:window-y="0"
     inkscape:window-maximized="1"
     inkscape:current-layer="layer1" />
  <defs
     id="defs1" />
  <g
     inkscape:label="Layer 1"
     inkscape:groupmode="layer"
     id="layer1">
    <path
       id="path25"
       d="m 28.634857,24.036966 v 34.299959 c 0,0.366545 -0.167076,0.525523 -0.474339,0.525523 h -6.524726 c -0.307262,0 -0.433926,-0.158978 -0.433926,-0.525523 V 24.036966 c 0,-0.29374 0.158979,-0.431175 0.463567,-0.431175 h 6.495085 c 0.202142,-0.03208 0.401533,0.09435 0.433926,0.336903 0.04049,0.03208 0.04049,0.06188 0.04049,0.09435 z"
       style="fill:#e94868;fill-opacity:1;fill-rule:nonzero;stroke:none;stroke-width:2.69506" />
    <path
       id="path26"
       d="m 47.901798,59.261331 c -2.47406,0.04278 -4.937348,-0.463566 -7.168846,-1.493061 -2.096758,-0.970219 -3.832367,-2.560302 -5.034362,-4.527694 -1.231644,-2.032068 -1.829941,-4.557335 -1.829941,-7.589272 -0.03209,-2.463281 0.598327,-4.896912 1.829941,-7.034092 1.263983,-2.158738 3.096612,-3.959031 5.295787,-5.158336 2.336609,-1.293624 5.136769,-1.926963 8.432819,-1.926963 0.169751,0 0.401534,0 0.706123,0.03208 0.293739,0.03208 0.630642,0.03208 1.032206,0.06188 V 21.109775 c 0,-0.231783 0.10512,-0.369218 0.336903,-0.369218 h 6.767282 c 0.158978,-0.0298 0.29649,0.09702 0.326131,0.231784 v 31.761214 c 0,0.601002 0.03209,1.274763 0.07563,2.002427 0.06188,0.703447 0.09435,1.36639 0.126664,1.935046 0,0.231783 -0.09435,0.433925 -0.326132,0.528197 -1.738305,0.735762 -3.570942,1.263982 -5.444009,1.598166 -1.66285,0.307261 -3.401154,0.463566 -5.125991,0.463566 z M 51.16551,52.609934 V 37.954231 c -0.29649,-0.06188 -0.601002,-0.137435 -0.894764,-0.167076 -0.369218,-0.03208 -0.738437,-0.06493 -1.10767,-0.06493 -1.293623,0 -2.598035,0.264097 -3.767684,0.862417 -1.126532,0.568686 -2.094062,1.401425 -2.832507,2.46597 -0.72499,1.061856 -1.094193,2.492929 -1.094193,4.231242 -0.03208,1.166953 0.167077,2.32583 0.568686,3.430804 0.326132,0.894756 0.830072,1.695187 1.495751,2.358168 0.630642,0.601001 1.398736,1.075324 2.261154,1.336749 0.905535,0.29649 1.832636,0.433925 2.77051,0.433925 0.50398,0 0.967532,-0.03209 1.398736,-0.06493 0.431174,0.03208 0.832769,-0.04278 1.201995,-0.167077 z"
       style="fill:#e94868;fill-opacity:1;fill-rule:nonzero;stroke:none;stroke-width:2.69506" />
  </g>
</svg>
