<?xml version="1.0" encoding="UTF-8" standalone="no"?>
<!-- Created with Inkscape (http://www.inkscape.org/) -->

<svg
   width="80mm"
   height="80mm"
   viewBox="0 0 80 80"
   version="1.1"
   id="svg1"
   inkscape:version="1.4.2 (1:1.4.2+202505120737+ebf0e940d0)"
   sodipodi:docname="skill-ps.svg"
   xmlns:inkscape="http://www.inkscape.org/namespaces/inkscape"
   xmlns:sodipodi="http://sodipodi.sourceforge.net/DTD/sodipodi-0.dtd"
   xmlns="http://www.w3.org/2000/svg"
   xmlns:svg="http://www.w3.org/2000/svg">
  <sodipodi:namedview
     id="namedview1"
     pagecolor="#acacac"
     bordercolor="#eeeeee"
     borderopacity="1"
     inkscape:showpageshadow="0"
     inkscape:pageopacity="0"
     inkscape:pagecheckerboard="0"
     inkscape:deskcolor="#505050"
     inkscape:document-units="mm"
     inkscape:zoom="2.2753006"
     inkscape:cx="170.74667"
     inkscape:cy="153.60608"
     inkscape:window-width="1920"
     inkscape:window-height="1052"
     inkscape:window-x="0"
     inkscape:window-y="0"
     inkscape:window-maximized="1"
     inkscape:current-layer="layer1" />
  <defs
     id="defs1" />
  <g
     inkscape:label="Layer 1"
     inkscape:groupmode="layer"
     id="layer1">
    <path
       id="path20"
       d="M 15.927822,56.854869 V 22.587253 c 0,-0.231783 0.105125,-0.369218 0.336904,-0.369218 0.568686,0 1.104973,0 1.862286,-0.02979 0.800431,-0.03209 1.643981,-0.03209 2.538737,-0.06494 0.905543,-0.03209 1.862287,-0.03209 2.905265,-0.06188 1.032214,-0.04278 2.032075,-0.04278 3.031944,-0.04278 2.727395,0 4.99932,0.336901 6.864304,1.042992 1.662841,0.557916 3.199028,1.493046 4.46301,2.727394 1.072628,1.061842 1.905397,2.358162 2.430935,3.789236 0.506653,1.398744 0.768093,2.832507 0.768093,4.336356 0,2.864828 -0.662958,5.223005 -1.999737,7.085291 -1.325962,1.862288 -3.199028,3.263705 -5.368546,4.064144 -2.263843,0.830072 -4.759462,1.137309 -7.494947,1.137309 -0.800438,0 -1.336741,0 -1.662842,-0.03209 -0.336902,-0.04279 -0.800439,-0.04279 -1.433778,-0.04279 v 10.696663 c 0.03209,0.231784 -0.13476,0.431176 -0.366544,0.463566 -0.03209,0 -0.07563,0 -0.137436,0 h -6.338765 c -0.261425,0 -0.39886,-0.137434 -0.39886,-0.431173 z M 23.201773,28.651126 V 39.84099 c 0.463566,0.03209 0.894749,0.06494 1.29632,0.06494 h 1.767946 c 1.29364,0 2.600732,-0.199469 3.832376,-0.601002 1.061855,-0.29374 1.999729,-0.935184 2.735484,-1.767954 0.69535,-0.83277 1.032207,-1.959308 1.032207,-3.422722 0.03209,-1.029509 -0.231783,-2.061717 -0.768092,-2.967253 -0.568687,-0.862419 -1.369088,-1.528095 -2.336611,-1.894625 -1.231644,-0.506653 -2.557605,-0.70612 -3.9267,-0.662957 -0.865115,0 -1.633201,0 -2.263851,0.02979 -0.67373,-0.02979 -1.137303,0 -1.369079,0.03209 z"
       style="fill:#2ca8ff;fill-opacity:1;fill-rule:nonzero;stroke:none;stroke-width:2.69505" />
    <path
       id="path21"
       d="m 61.93239,37.808908 c -0.999861,-0.536296 -2.061717,-0.902832 -3.19902,-1.134616 -1.231645,-0.264097 -2.463288,-0.433924 -3.738043,-0.433924 -0.662957,-0.02979 -1.358307,0.06494 -1.99973,0.231783 -0.431175,0.105124 -0.800439,0.336904 -1.032214,0.662957 -0.169749,0.27487 -0.264097,0.601002 -0.264097,0.905537 0,0.296491 0.137435,0.601001 0.336902,0.865115 0.29649,0.366544 0.695349,0.662959 1.12654,0.894756 0.768093,0.39886 1.568517,0.768094 2.368956,1.104982 1.800299,0.601001 3.538604,1.431074 5.136778,2.430934 1.096883,0.695349 2.002418,1.6332 2.633061,2.759732 0.525522,1.061856 0.800431,2.231505 0.768094,3.430803 0.03209,1.568525 -0.442024,3.126263 -1.304404,4.43337 -0.937881,1.325962 -2.231505,2.358176 -3.727263,2.956474 -1.64129,0.706119 -3.643717,1.064544 -6.042313,1.064544 -1.528097,0 -3.031937,-0.126663 -4.527688,-0.431175 -1.169664,-0.202141 -2.336617,-0.557914 -3.401162,-1.064553 -0.231784,-0.137435 -0.398859,-0.369217 -0.366544,-0.630642 v -5.791669 c 0,-0.105115 0.02979,-0.231783 0.13476,-0.304512 0.09703,-0.06188 0.202143,-0.03209 0.296491,0.03209 1.304404,0.768093 2.662711,1.304403 4.13691,1.630511 1.263974,0.336902 2.600723,0.506655 3.926693,0.506655 1.274761,0 2.169517,-0.169829 2.767822,-0.474339 0.538969,-0.231783 0.905535,-0.789652 0.905535,-1.390646 0,-0.471664 -0.272196,-0.905535 -0.80043,-1.336749 -0.536295,-0.431174 -1.630512,-0.924413 -3.271795,-1.568524 -1.695195,-0.59023 -3.263711,-1.38795 -4.727123,-2.390514 -1.032207,-0.735763 -1.905405,-1.703278 -2.538745,-2.829803 -0.536294,-1.064544 -0.800431,-2.231512 -0.768093,-3.401161 0,-1.431075 0.401534,-2.78939 1.137312,-4.021026 0.832777,-1.336748 2.064413,-2.401294 3.495487,-3.064268 1.568525,-0.800439 3.535916,-1.166968 5.904864,-1.166968 1.369086,0 2.77052,0.09434 4.136909,0.29374 0.991779,0.137435 1.95931,0.39886 2.864845,0.768093 0.126663,0.03209 0.264099,0.16975 0.326132,0.304512 0.04278,0.126663 0.07258,0.264098 0.07258,0.401532 v 5.419763 c 0,0.137435 -0.07258,0.264099 -0.167076,0.336903 -0.304512,0.06494 -0.463567,0.06494 -0.601001,0 z"
       style="fill:#2ca8ff;fill-opacity:1;fill-rule:nonzero;stroke:none;stroke-width:2.69505" />
  </g>
</svg>
