<?xml version="1.0" encoding="UTF-8" standalone="no"?>
<!-- Created with Inkscape (http://www.inkscape.org/) -->

<svg
   width="80mm"
   height="80mm"
   viewBox="0 0 80 80"
   version="1.1"
   id="svg1"
   inkscape:version="1.4.2 (1:1.4.2+202505120737+ebf0e940d0)"
   sodipodi:docname="skill-ai.svg"
   xmlns:inkscape="http://www.inkscape.org/namespaces/inkscape"
   xmlns:sodipodi="http://sodipodi.sourceforge.net/DTD/sodipodi-0.dtd"
   xmlns="http://www.w3.org/2000/svg"
   xmlns:svg="http://www.w3.org/2000/svg">
  <sodipodi:namedview
     id="namedview1"
     pagecolor="#acacac"
     bordercolor="#eeeeee"
     borderopacity="1"
     inkscape:showpageshadow="0"
     inkscape:pageopacity="0"
     inkscape:pagecheckerboard="0"
     inkscape:deskcolor="#505050"
     inkscape:document-units="mm"
     inkscape:zoom="2.2753006"
     inkscape:cx="200.63283"
     inkscape:cy="192.28229"
     inkscape:window-width="1920"
     inkscape:window-height="1052"
     inkscape:window-x="0"
     inkscape:window-y="0"
     inkscape:window-maximized="1"
     inkscape:current-layer="layer1" />
  <defs
     id="defs1" />
  <g
     inkscape:label="Layer 1"
     inkscape:groupmode="layer"
     id="layer1">
    <path
       id="path23"
       d="m 40.024457,50.444686 h -12.40264 l -2.536047,7.821047 c -0.06494,0.304512 -0.336903,0.506654 -0.633317,0.463566 h -6.263302 c -0.369219,0 -0.474338,-0.199467 -0.369219,-0.590229 L 28.54895,27.272608 c 0.105116,-0.336903 0.199468,-0.706121 0.336903,-1.104966 0.137435,-0.695349 0.199468,-1.431065 0.199468,-2.15873 -0.03209,-0.167077 0.105117,-0.336904 0.264098,-0.369219 h 8.632259 c 0.27487,0 0.398859,0.09702 0.441946,0.264099 l 12.160085,34.299962 c 0.105116,0.366544 0,0.525522 -0.326131,0.525522 H 43.288169 C 43.056385,58.772056 42.824602,58.602614 42.7492,58.37083 Z M 29.54878,43.685494 h 8.475946 c -0.202142,-0.706122 -0.474338,-1.536179 -0.770781,-2.401295 -0.304512,-0.894756 -0.598328,-1.862278 -0.905544,-2.862148 -0.326132,-1.032205 -0.630642,-2.032067 -0.967523,-3.064274 -0.326131,-1.032206 -0.630643,-1.99973 -0.894757,-2.95917 -0.264097,-0.935193 -0.503979,-1.800307 -0.735762,-2.598042 h -0.06494 c -0.304512,1.431081 -0.662958,2.862156 -1.137311,4.293222 -0.493208,1.600863 -0.99987,3.263713 -1.525408,4.926562 -0.474338,1.695188 -0.967522,3.263705 -1.474191,4.665137 z M 58.016646,29.463693 c -1.096891,0.04049 -2.158739,-0.401534 -2.959171,-1.158878 -0.768093,-0.843549 -1.169657,-1.937743 -1.137318,-3.064275 -0.03209,-1.137311 0.398859,-2.199167 1.199298,-2.967252 0.800431,-0.770791 1.864984,-1.169657 2.969958,-1.169657 1.293623,0 2.293484,0.398859 3.031936,1.169657 0.735762,0.797734 1.137311,1.862279 1.094186,2.967252 0.04278,1.126532 -0.358447,2.220726 -1.15887,3.064275 -0.768093,0.789652 -1.905404,1.231644 -3.040019,1.158878 z M 54.289382,58.370846 V 32.724708 c 0,-0.326131 0.126664,-0.460816 0.431176,-0.460816 h 6.60019 c 0.29374,0 0.431252,0.167076 0.431252,0.460816 v 25.646138 c 0,0.358447 -0.137436,0.525523 -0.431252,0.525523 h -6.538203 c -0.326132,0 -0.493208,-0.199468 -0.493208,-0.525523 z"
       style="fill:#ff9a00;fill-opacity:1;fill-rule:nonzero;stroke:none;stroke-width:2.69506" />
  </g>
</svg>
