<?xml version="1.0" encoding="UTF-8" standalone="no"?>
<!-- Created with Inkscape (http://www.inkscape.org/) -->

<svg
   width="80"
   height="80"
   viewBox="0 0 21.166666 21.166666"
   version="1.1"
   id="svg1"
   inkscape:version="1.4.2 (1:1.4.2+202505120737+ebf0e940d0)"
   sodipodi:docname="skill-bl.svg"
   xmlns:inkscape="http://www.inkscape.org/namespaces/inkscape"
   xmlns:sodipodi="http://sodipodi.sourceforge.net/DTD/sodipodi-0.dtd"
   xmlns="http://www.w3.org/2000/svg"
   xmlns:svg="http://www.w3.org/2000/svg">
  <sodipodi:namedview
     id="namedview1"
     pagecolor="#505050"
     bordercolor="#eeeeee"
     borderopacity="1"
     inkscape:showpageshadow="0"
     inkscape:pageopacity="0"
     inkscape:pagecheckerboard="0"
     inkscape:deskcolor="#505050"
     inkscape:document-units="px"
     inkscape:zoom="8.8443883"
     inkscape:cx="51.162385"
     inkscape:cy="26.287855"
     inkscape:window-width="1920"
     inkscape:window-height="1052"
     inkscape:window-x="0"
     inkscape:window-y="0"
     inkscape:window-maximized="1"
     inkscape:current-layer="layer1"
     showguides="true" />
  <defs
     id="defs1" />
  <g
     inkscape:label="Layer 1"
     inkscape:groupmode="layer"
     id="layer1"
     transform="translate(-111.125,-148.43125)">
    <g
       id="g2"
       transform="matrix(0.87645472,0,0,0.87645472,15.03649,19.645606)">
      <path
         id="path34"
         d="m 119.85938,159.78846 c 0.0629,-1.12751 0.61502,-2.11959 1.44747,-2.8232 0.81783,-0.69188 1.91606,-1.11507 3.11753,-1.11507 1.19782,0 2.29897,0.42319 3.11681,1.11507 0.83246,0.70361 1.3845,1.69569 1.44747,2.82027 0.0629,1.15829 -0.40342,2.23308 -1.21831,3.03114 -0.83539,0.80976 -2.01929,1.31863 -3.34597,1.31863 -1.32739,0 -2.51423,-0.50887 -3.3467,-1.31863 -0.81781,-0.79806 -1.2842,-1.87285 -1.2183,-3.02821 z"
         style="fill:#ffffff;fill-opacity:1;fill-rule:nonzero;stroke:none;stroke-width:0.732158" />
      <path
         id="path35"
         d="m 122.07927,159.88804 c 0.0307,-0.57767 0.31412,-1.08652 0.74314,-1.44675 0.41735,-0.35508 0.98111,-0.57254 1.59904,-0.57254 0.61501,0 1.17805,0.21746 1.5983,0.57254 0.42612,0.36023 0.70947,0.86908 0.74388,1.44675 0.0315,0.59525 -0.20567,1.14728 -0.62673,1.55583 -0.42832,0.41514 -1.03527,0.67507 -1.71545,0.67507 -0.6809,0 -1.29005,-0.25993 -1.7191,-0.67507 -0.41732,-0.40855 -0.65749,-0.96058 -0.62308,-1.55583 z"
         style="fill:#265787;fill-opacity:1;fill-rule:nonzero;stroke:none;stroke-width:0.732158" />
      <path
         id="path36"
         d="m 118.34674,161.05803 c 0.006,0.22844 0.0768,0.66627 0.18595,1.00964 0.2255,0.72631 0.61208,1.39843 1.14949,1.99293 0.55204,0.60696 1.23296,1.09825 2.01636,1.44455 0.82369,0.36315 1.71618,0.54913 2.64529,0.54913 0.9269,-0.002 1.81941,-0.19177 2.64308,-0.55791 0.78635,-0.35143 1.46432,-0.84344 2.01343,-1.4526 0.53741,-0.59452 0.92327,-1.26664 1.15244,-1.99368 0.11414,-0.369 0.18595,-0.74019 0.21451,-1.11507 0.0286,-0.36608 0.0166,-0.73509 -0.0344,-1.1041 -0.10315,-0.71751 -0.35218,-1.39255 -0.73509,-2.00756 -0.34925,-0.56376 -0.80098,-1.05798 -1.33839,-1.47603 l -5.41943,-4.15793 c -0.002,-0.002 -0.008,-0.006 -0.0145,-0.008 -0.35437,-0.27456 -0.95255,-0.27163 -1.34424,0 -0.39464,0.27748 -0.44003,0.73508 -0.0886,1.02062 v 0.002 l 2.25944,1.83626 -6.88961,0.006 h -0.008 c -0.56889,0.002 -1.118,0.37486 -1.22711,0.84637 -0.11124,0.48031 0.27751,0.8808 0.86981,0.8808 l -0.002,0.002 3.49167,-0.006 -6.23139,4.77662 c -0.006,0.006 -0.0145,0.0145 -0.0235,0.0207 -0.58864,0.44881 -0.77755,1.19562 -0.40854,1.67006 0.37706,0.48102 1.17512,0.48102 1.77036,0.002 l 3.40014,-2.78221 c 0,0 -0.0483,0.37706 -0.0454,0.60037 z m 8.73977,1.25859 c -0.70068,0.71166 -1.68177,1.118 -2.74266,1.12093 -1.06383,0 -2.04492,-0.4005 -2.74559,-1.11288 -0.34338,-0.3456 -0.59452,-0.74607 -0.749,-1.16926 -0.1515,-0.421 -0.21158,-0.86395 -0.17205,-1.30983 0.0374,-0.43783 0.16915,-0.85515 0.37486,-1.23296 0.20567,-0.37194 0.48615,-0.70653 0.83539,-0.98987 0.68018,-0.55426 1.54705,-0.85442 2.45347,-0.85737 0.91006,0 1.77619,0.29726 2.45711,0.84932 0.34851,0.28333 0.62892,0.61793 0.83247,0.98621 0.21159,0.37779 0.3397,0.79511 0.37706,1.23296 0.0403,0.44588 -0.0208,0.88956 -0.17143,1.30688 -0.15441,0.42905 -0.40636,0.82662 -0.74974,1.17587 z"
         style="fill:#ea7600;fill-opacity:1;fill-rule:nonzero;stroke:none;stroke-width:0.732158" />
    </g>
  </g>
</svg>
