<?xml version="1.0" encoding="UTF-8" standalone="no"?>
<!-- Created with Inkscape (http://www.inkscape.org/) -->

<svg
   width="80mm"
   height="80mm"
   viewBox="0 0 80 80"
   version="1.1"
   id="svg1"
   inkscape:version="1.4.2 (1:1.4.2+202505120737+ebf0e940d0)"
   sodipodi:docname="skill-ae.svg"
   xmlns:inkscape="http://www.inkscape.org/namespaces/inkscape"
   xmlns:sodipodi="http://sodipodi.sourceforge.net/DTD/sodipodi-0.dtd"
   xmlns="http://www.w3.org/2000/svg"
   xmlns:svg="http://www.w3.org/2000/svg">
  <sodipodi:namedview
     id="namedview1"
     pagecolor="#acacac"
     bordercolor="#eeeeee"
     borderopacity="1"
     inkscape:showpageshadow="0"
     inkscape:pageopacity="0"
     inkscape:pagecheckerboard="0"
     inkscape:deskcolor="#505050"
     inkscape:document-units="mm"
     inkscape:zoom="1.6088805"
     inkscape:cx="69.924399"
     inkscape:cy="140.15957"
     inkscape:window-width="1920"
     inkscape:window-height="1052"
     inkscape:window-x="0"
     inkscape:window-y="0"
     inkscape:window-maximized="1"
     inkscape:current-layer="layer1" />
  <defs
     id="defs1" />
  <g
     inkscape:label="Layer 1"
     inkscape:groupmode="layer"
     id="layer1">
    <path
       id="path28"
       d="M 32.953496,48.755071 H 20.550864 l -2.536047,7.864166 c -0.06188,0.293739 -0.326132,0.495881 -0.630643,0.463566 h -6.266 c -0.366545,0 -0.460893,-0.199468 -0.366545,-0.601001 L 21.488723,25.752797 c 0.09435,-0.336903 0.199468,-0.641415 0.326131,-1.032207 0.137435,-0.706121 0.199468,-1.431074 0.199468,-2.169518 -0.02979,-0.167077 0.10512,-0.336903 0.27487,-0.366545 h 8.632266 c 0.231784,0 0.39886,0.10512 0.431175,0.261425 l 12.170856,33.973855 c 0.09435,0.358446 0,0.525523 -0.336903,0.525523 h -6.969378 c -0.231783,0.03209 -0.463567,-0.126663 -0.525523,-0.369218 L 32.953496,48.58798 Z M 22.488599,42.133329 h 8.465167 C 30.754298,41.427208 30.490199,40.597151 30.185673,39.732036 29.889183,38.837279 29.584671,37.869748 29.290916,36.869887 28.954013,35.837681 28.6576,34.83782 28.320697,33.805613 27.983793,32.773406 27.690054,31.805883 27.415161,30.849132 27.153736,29.911258 26.921953,29.048839 26.69017,28.248408 h -0.07563 c -0.293739,1.431074 -0.662958,2.862148 -1.126532,4.293222 -0.503979,1.600863 -0.999868,3.263712 -1.536186,4.929251 -0.431175,1.692499 -0.967523,3.261016 -1.463412,4.662448 z"
       style="fill:#9999ff;fill-opacity:1;fill-rule:nonzero;stroke:none;stroke-width:2.69506" />
    <path
       id="path29"
       d="M 63.15697,45.75548 H 52.586969 c 0.137435,1.04029 0.463566,2.072497 1.032206,2.967261 0.601002,0.894749 1.431075,1.600855 2.430943,2.002411 1.336741,0.565936 2.800161,0.862418 4.274361,0.83008 1.15887,-0.03209 2.328527,-0.137435 3.463134,-0.369218 1.032207,-0.134761 2.032075,-0.39886 2.969957,-0.768086 0.158978,-0.126663 0.264098,-0.06188 0.264098,0.274871 v 5.093653 c 0,0.126663 -0.03209,0.264098 -0.06494,0.390762 -0.07258,0.10512 -0.137435,0.167076 -0.242555,0.242555 -1.061848,0.463566 -2.156042,0.800431 -3.325699,0.999861 -1.568509,0.29374 -3.137041,0.431175 -4.737896,0.388088 -2.525268,0 -4.662448,-0.388088 -6.400753,-1.156174 -1.630512,-0.706121 -3.064275,-1.8003 -4.198897,-3.169387 -1.064545,-1.29632 -1.832638,-2.757043 -2.296189,-4.357906 -0.463567,-1.568517 -0.706122,-3.201725 -0.706122,-4.864567 0,-1.8003 0.27487,-3.557475 0.843549,-5.295787 0.525523,-1.66285 1.358308,-3.188249 2.495619,-4.557336 1.094194,-1.336749 2.463281,-2.401294 4.031805,-3.169387 1.568517,-0.757306 3.430797,-1.032199 5.567977,-1.032199 1.767954,-0.0298 3.538605,0.307261 5.169109,1.032199 1.358307,0.601001 2.557613,1.506537 3.495487,2.662718 0.862419,1.137311 1.568525,2.401294 1.999738,3.802719 0.431175,1.336749 0.630643,2.695056 0.630643,4.061447 0,0.800431 -0.0298,1.495758 -0.06188,2.1264 -0.06188,0.633317 -0.105119,1.10767 -0.137435,1.401425 -0.03209,0.231784 -0.231783,0.431252 -0.463566,0.431252 -0.199468,0 -0.568686,0.03209 -1.104973,0.07258 -0.525523,0.06494 -1.158878,0.09702 -1.926964,0.09702 -0.768093,0 -1.568524,-0.137435 -2.430942,-0.137435 z M 52.586969,40.901685 h 7.031396 c 0.865115,0 1.506537,0 1.908101,-0.03209 0.261425,-0.04049 0.525523,-0.10512 0.757306,-0.272196 v -0.326132 c 0,-0.442023 -0.06494,-0.832769 -0.199468,-1.231636 -0.601001,-1.875756 -2.358176,-3.137041 -4.328249,-3.064275 -1.832646,-0.10512 -3.568254,0.862418 -4.430673,2.52526 -0.401533,0.77079 -0.644088,1.568525 -0.738436,2.401294 z"
       style="fill:#9999ff;fill-opacity:1;fill-rule:nonzero;stroke:none;stroke-width:2.69506" />
  </g>
</svg>
