<?xml version="1.0" encoding="UTF-8" standalone="no"?>
<!-- Created with Inkscape (http://www.inkscape.org/) -->

<svg
   width="1000"
   height="1000"
   viewBox="0 0 264.58333 264.58333"
   version="1.1"
   id="svg1"
   inkscape:version="1.4.2 (1:1.4.2+202505120737+ebf0e940d0)"
   sodipodi:docname="Branding.svg"
   xmlns:inkscape="http://www.inkscape.org/namespaces/inkscape"
   xmlns:sodipodi="http://sodipodi.sourceforge.net/DTD/sodipodi-0.dtd"
   xmlns="http://www.w3.org/2000/svg"
   xmlns:svg="http://www.w3.org/2000/svg">
  <sodipodi:namedview
     id="namedview1"
     pagecolor="#505050"
     bordercolor="#eeeeee"
     borderopacity="1"
     inkscape:showpageshadow="0"
     inkscape:pageopacity="0"
     inkscape:pagecheckerboard="0"
     inkscape:deskcolor="#505050"
     inkscape:document-units="px"
     inkscape:zoom="0.78484147"
     inkscape:cx="396.25837"
     inkscape:cy="561.25984"
     inkscape:window-width="1920"
     inkscape:window-height="1052"
     inkscape:window-x="0"
     inkscape:window-y="0"
     inkscape:window-maximized="1"
     inkscape:current-layer="layer1" />
  <defs
     id="defs1" />
  <g
     inkscape:label="Layer 1"
     inkscape:groupmode="layer"
     id="layer1">
    <rect
       style="fill:#ffffff;stroke-width:0.899001;paint-order:markers stroke fill;fill-opacity:1"
       id="rect1"
       width="264.58334"
       height="264.58334"
       x="0"
       y="0" />
    <g
       id="layer7"
       transform="matrix(0.90890022,0,0,0.90890022,-535.18185,17.744159)">
      <g
         id="g91"
         transform="translate(616.85854,-201.39407)">
        <path
           style="fill:#af0000;fill-opacity:1;stroke-width:2.092;stroke-linecap:square;paint-order:fill markers stroke"
           d="m 14.491668,241.23819 3.12229,12.9891 5.009228,13.49124 3.31061,10.2298 h 8.104839 l 1.52062,-5.51296 6.047315,-15.42608 3.755002,-15.7711 h -9.952266 l -3.19621,13.57935 -2.43035,6.57027 -5.100435,-11.24026 -2.085804,-8.90936 z"
           id="path69" />
        <path
           style="fill:#af0000;fill-opacity:1;stroke-width:2.092;stroke-linecap:square;paint-order:fill markers stroke"
           d="m 47.299996,241.23819 -0.08428,5.78423 3.621593,0.39072 -0.357566,4.08262 0.937296,13.45475 -0.57973,6.0072 -3.537313,0.50567 v 6.48495 h 13.650821 l 0.08428,-6.38443 -3.584863,-0.68449 0.649549,-6.38945 -0.828332,-12.39826 0.297972,-4.55513 3.297116,-0.68271 v -5.61567 z"
           id="path70" />
        <path
           style="fill:#af0000;fill-opacity:1;stroke-width:2.092;stroke-linecap:square;paint-order:fill markers stroke"
           d="m 64.004399,241.23819 -0.476755,15.97129 0.476755,20.73885 h 20.689486 l 0.119189,-7.98565 -12.823023,-0.23836 -0.953511,-15.60641 0.953511,-12.87972 z"
           id="path71" />
        <path
           style="fill:#af0000;fill-opacity:1;stroke-width:2.092;stroke-linecap:square;paint-order:fill markers stroke"
           d="m 105.36155,277.94833 -0.0843,-5.78423 3.53973,-0.92707 -0.66266,-6.94309 0.9155,-11.37197 -0.25284,-4.69316 -3.37117,-0.50567 v -6.48495 h 13.48468 l 0.0843,7.15916 -3.2869,0.5057 0.33712,6.65805 -0.89725,10.1756 0.56013,5.07893 3.11834,1.51703 v 5.61567 z"
           id="path72" />
        <path
           style="fill:#af0000;fill-opacity:1;stroke-width:2.092;stroke-linecap:square;paint-order:fill markers stroke"
           d="m 120.86634,277.94833 1.80831,-13.91328 3.23857,-13.91329 2.45821,-8.88357 h 12.92115 l 5.3131,19.18939 2.45257,17.52075 h -8.0908 l -1.35903,-9.71635 -1.59075,-3.93232 -5.09624,0.0241 -2.46489,7.05067 -0.31949,6.57392 z"
           id="path73" />
        <path
           style="fill:#af0000;fill-opacity:1;stroke-width:2.092;stroke-linecap:square;paint-order:fill markers stroke"
           d="m 180.05853,241.16781 -0.22676,17.24551 -1.69718,11.91847 -6.99517,6.85257 -6.1146,0.90796 -7.22816,-0.94966 -6.24491,-7.45971 -1.334,-13.40276 -0.19499,-15.05683 8.00652,0.10925 0.0964,15.15076 0.96185,7.98523 2.86549,4.55381 2.94977,1.00688 3.28689,-0.84727 2.94978,-3.79224 0.84724,-8.45453 -0.10319,-15.53483 z"
           id="path74" />
        <path
           style="fill:#af0000;fill-opacity:1;stroke-width:2.092;stroke-linecap:square;paint-order:fill markers stroke"
           d="m 74.555091,241.1786 -0.01815,14.32652 0.912065,11.89501 8.538215,0.11919 8.992766,-14.86194 1.011351,13.82538 -1.011351,11.46557 h 9.462813 l 0.33024,-8.76355 -1.00447,-13.98727 0.67423,-13.95932 H 89.221306 l -5.922778,8.55515 0.927072,-8.55515 z"
           id="path75" />
        <path
           style="fill:#af0000;fill-opacity:1;stroke-width:2.092;stroke-linecap:square;paint-order:fill markers stroke"
           d="m 14.491668,321.33307 -0.589955,-12.11258 0.979589,-12.56292 -0.389634,-12.03465 h 7.628085 l 2.300012,7.95352 6.513973,14.19019 4.965031,-10.14479 3.785121,-11.99893 h 7.616106 l 0.674234,14.53219 -0.681615,8.2148 0.0074,4.75822 3.970259,2.43802 -0.09662,6.76694 H 39.087948 l -0.562436,-4.94694 0.44325,-5.97154 -2.229358,4.56082 -2.055451,6.35766 h -7.455291 l -1.887218,-5.06307 -2.268178,-4.7104 -0.421396,5.07745 0.421396,4.69603 z"
           id="path76" />
        <path
           style="fill:#af0000;fill-opacity:1;stroke-width:2.092;stroke-linecap:square;paint-order:fill markers stroke"
           d="m 53.365686,321.33306 -0.147293,-6.22485 0.627434,-6.64201 -0.480141,-9.29492 v -7.19418 l -3.609545,-1.45918 0.238378,-5.895 h 13.484675 l -0.392475,6.1725 -3.167702,1.57839 0.119188,5.51434 0.774727,7.12339 -0.536349,7.33391 2.879955,1.86612 0.238378,7.12149 z"
           id="path77" />
        <path
           style="fill:#af0000;fill-opacity:1;stroke-width:2.092;stroke-linecap:square;paint-order:fill markers stroke"
           d="m 65.112929,321.33307 -0.213035,-8.14994 0.547948,-7.79486 -0.71417,-11.63302 0.379257,-9.13233 h 24.808217 l 0.111082,3.97025 -0.647432,3.71741 H 74.05209 l 0.547815,7.26508 h 11.067833 l 0.484606,3.99405 -1.032421,3.90977 H 74.270018 l 0.115335,2.52775 0.643178,3.82839 h 14.654237 l -0.337117,3.79086 0.337117,3.70659 z"
           id="path78" />
        <path
           style="fill:#af0000;fill-opacity:1;stroke-width:2.092;stroke-linecap:square;paint-order:fill markers stroke"
           d="m 205.52815,242.57223 -1.10759,6.68277 -9.51954,-1.86194 -5.18492,0.84228 -1.54584,4.15936 2.26821,3.50383 5.07947,0.68694 5.33924,-0.10898 4.54085,3.92621 0.34012,6.81428 -1.32852,6.63549 -6.27932,3.79786 -7.15053,0.62574 -8.99796,-2.47317 1.60905,-6.72717 7.52627,2.17413 5.40263,-0.002 2.30373,-1.19391 0.93785,-2.43987 -0.74988,-2.63261 -1.5745,-1.11308 -4.79259,-0.0404 -5.05573,-0.97821 -4.73585,-4.57153 -0.90627,-5.56605 0.16643,-5.92361 3.29799,-4.1161 9.06243,-1.46503 z"
           id="path80" />
        <path
           style="fill:#af0000;fill-opacity:1;stroke-width:2.092;stroke-linecap:square;paint-order:fill markers stroke"
           d="m 117.13691,284.62292 0.50568,3.48628 -0.0843,3.48627 h 7.92182 l -0.0843,6.33161 0.71637,11.99797 -0.63209,11.40802 h 7.68767 l -0.15863,-12.44686 -0.5156,-7.67224 0.67423,-9.7377 h 8.52201 l 0.13013,-4.30641 -0.59367,-2.54694 z"
           id="path81" />
        <path
           style="fill:#af0000;fill-opacity:1;stroke-width:2.092;stroke-linecap:square;paint-order:fill markers stroke"
           d="m 157.40317,284.62293 9.10743,2.7399 4.77295,5.64668 1.26419,10.14288 -1.17991,9.74894 -4.93817,6.30552 -9.09631,2.12621 -8.96147,-2.04237 -5.01342,-6.8312 -1.12137,-9.39163 1.072,-9.58158 5.46308,-6.48365 z"
           id="path82" />
        <path
           style="fill:#000000;fill-opacity:1;stroke-width:2.092;stroke-linecap:square;paint-order:fill markers stroke"
           d="m 14.491668,364.71782 0.465946,-15.045 -0.803063,-10.5332 0.337117,-11.13195 h 7.628085 l 1.911912,7.25786 4.04099,7.35865 2.861083,7.5272 3.317477,-6.26777 2.042103,-8.02225 3.390572,-7.8537 h 7.616106 l 0.417161,12.87972 -0.74493,11.97482 0.327769,11.85564 -8.212048,-1e-5 -0.119186,-10.91848 -1.606055,5.51883 -2.678754,5.39965 h -7.455291 l -1.422159,-5.06552 -2.733237,-4.70795 v 9.77348 z"
           id="path83" />
        <path
           style="fill:#000000;fill-opacity:1;stroke-width:2.092;stroke-linecap:square;paint-order:fill markers stroke"
           d="m 49.448901,328.05704 6.899734,-0.007 -0.273486,6.2097 0.501241,11.09644 0.02508,8.8937 2.502965,3.69486 3.045925,0.77473 3.403492,-0.89392 2.383777,-2.86054 0.148983,-9.24381 0.41803,-7.93288 -0.567016,-9.78066 h 7.270517 l 0.79787,5.64858 -1.128998,14.38846 0.66401,9.48918 -2.488601,5.03507 -4.455944,2.14912 H 57.391896 l -4.665305,-2.46982 -2.764786,-4.61894 -0.02153,-7.74265 -0.662849,-12.55365 z"
           id="path84" />
        <path
           style="fill:#000000;fill-opacity:1;stroke-width:2.092;stroke-linecap:square;paint-order:fill markers stroke"
           d="m 104.22944,328.00767 -0.32745,6.07515 0.23295,6.09707 -6.721695,4.67613 -6.331264,5.24707 -4.224283,5.49991 16.855842,-0.0843 0.36151,4.79501 0.0599,4.40412 H 77.671255 l -0.28207,-6.49197 0.45063,-7.76391 4.796494,-4.82336 5.723552,-4.73908 6.841477,-5.09643 H 77.675495 v -3.81628 l 0.41716,-3.97914 z"
           id="path86" />
        <path
           style="fill:#000000;fill-opacity:1;stroke-width:2.092;stroke-linecap:square;paint-order:fill markers stroke"
           d="m 105.85837,328.00767 -0.0783,8.76769 0.77473,11.14416 -0.67449,7.14572 0.19773,9.6526 h 9.6483 l 1.19189,-7.42959 -2.50297,-1.78784 -0.58996,-3.76657 0.4918,-9.89229 -0.46888,-4.99449 2.89121,-1.78784 0.17878,-7.05155 z"
           id="path87" />
        <path
           style="fill:#000000;fill-opacity:1;stroke-width:2.092;stroke-linecap:square;paint-order:fill markers stroke"
           d="m 144.49776,328.00767 0.35757,7.27783 -0.81221,8.16882 0.70032,6.60957 -0.61531,6.97406 0.36963,7.67987 h -24.80822 l 0.14445,-4.59249 0.51109,-3.09517 h 15.21352 l 0.95351,-3.45376 -0.11919,-3.81132 h -12.44997 l -0.53635,-3.89232 0.53635,-4.0115 h 11.97322 l 0.41716,-6.05817 -15.86906,-0.29797 -0.50655,-3.9871 0.86412,-3.51035 z"
           id="path88" />
        <path
           style="fill:#000000;fill-opacity:1;stroke-width:2.092;stroke-linecap:square;paint-order:fill markers stroke"
           d="m 147.59977,328.00767 -0.75851,7.79541 h 9.43329 l 1.0131,9.72901 -0.41716,8.10118 -3.05904,3.24453 h -7.13759 l 0.53635,7.84004 h 10.55317 l 4.06651,-3.87101 2.99382,-3.9902 -0.51256,-6.76502 0.67934,-6.64584 -0.70313,-8.04108 0.53635,-7.39702 z"
           id="path89" />
        <path
           style="fill:#000000;fill-opacity:1;stroke-width:2.092;stroke-linecap:square;paint-order:fill markers stroke"
           d="m 166.95355,328.00769 -0.49836,7.92941 0.75517,9.60812 0.19349,11.38684 3.14301,5.59257 4.23017,2.1932 h 11.80034 l 1.01136,-1.21749 -0.0843,1.21749 h 6.36307 l 0.15132,-7.93268 -0.657,-5.25648 0.50568,-10.28207 -0.71637,-6.78801 0.71637,-6.4509 h -8.00652 l -0.28804,8.41049 1.06043,8.66333 -0.68809,8.17891 -3.03405,3.20261 -2.89741,0.91136 -2.65904,-0.99566 -2.61865,-3.03405 0.49592,-10.16376 -0.60185,-5.97476 0.49841,-9.19849 z"
           id="path90" />
        <path
           style="fill:#af0000;fill-opacity:1;stroke-width:2.092;stroke-linecap:square;paint-order:fill markers stroke"
           d="m 91.826955,284.8554 1.10759,6.68277 9.425045,-0.43467 5.14278,0.92656 1.25086,3.46377 -2.01537,3.46169 -5.07947,0.68694 -4.875712,0.0174 -4.54085,4.30547 -0.803656,6.3086 1.32852,6.63549 6.279324,3.79786 7.150534,0.62574 9.29593,-0.26818 -1.13829,-7.19968 -7.62076,0.52592 -5.40263,-0.21269 -2.851554,-1.53103 -0.727157,-2.01847 0.117786,-2.50619 2.080181,-2.16657 4.497614,0.21266 5.05573,-0.93607 4.82013,-3.8973 1.20125,-5.48177 -0.46141,-5.64942 -3.29799,-4.1161 -9.06243,-1.46503 z"
           id="path92" />
        <path
           style="fill:#000000;fill-opacity:1;stroke-width:2.092;stroke-linecap:square;paint-order:fill markers stroke"
           d="m 196.51161,328.00769 1.19189,7.79539 9.69832,-0.47753 5.90006,1.08066 1.24786,4.09977 -2.62578,2.55032 -4.36433,0.0314 -5.6968,0.42737 -4.60045,3.50905 -0.75728,6.63461 1.32852,6.63549 6.27932,3.79786 7.15053,0.62574 9.86757,10e-6 v -7.68768 l -8.62404,0.25284 -5.57717,0.0954 -3.53053,-0.99176 -1.2605,-2.47478 0.64515,-2.70579 2.91449,-1.66688 4.65894,0.46104 5.13154,-0.70792 4.1995,-3.7372 1.44262,-5.80443 -0.52399,-6.22158 -3.77475,-4.05651 -9.06243,-1.46503 z"
           id="path93" />
      </g>
    </g>
  </g>
</svg>
